<svg id="visual" viewBox="0 0 960 540" width="960" height="540" xmlns="http://www.w3.org/2000/svg" xmlns:xlink="http://www.w3.org/1999/xlink" version="1.1"><rect x="0" y="0" width="960" height="540" fill="#FFFFFF"></rect><g transform="translate(1120.4247476376277 -5.644468689929681)"><path d="M210.7 -394.5C317.3 -303.3 478.7 -336.4 452.7 -291.4C426.7 -246.3 213.3 -123.2 144.1 -40C74.8 43.2 149.5 86.3 222 211.9C294.5 337.5 364.8 545.5 327.4 642.9C290 740.3 145 727.1 23.6 686.3C-97.8 645.5 -195.7 576.9 -293.8 514.6C-392 452.2 -490.4 396.1 -599 311.4C-707.6 226.7 -826.3 113.3 -754.4 41.5C-682.5 -30.3 -420.1 -60.7 -291.1 -110C-162.1 -159.4 -166.5 -227.8 -140.3 -365.5C-114 -503.1 -57 -710.1 -2.5 -705.7C52 -701.4 104 -485.8 210.7 -394.5" fill="#091f40"></path></g></svg>